<svg width="512" height="512" viewBox="0 0 512 512" fill="none" xmlns="http://www.w3.org/2000/svg">
  <rect width="512" height="512" fill="#f43f5e"/>
  <path d="M256 448c-7.18 0-13.69-2.67-18.7-7.14L108.1 322.58c-31.73-28.21-53.1-66.31-53.1-109.33C55 159.71 98.63 116 152.17 116c29.86 0 56.98 13.12 75.83 34 18.85-20.88 45.97-34 75.83-34C357.37 116 401 159.71 401 213.25c0 43.02-21.37 81.12-53.1 109.33L218.7 440.86C213.69 445.33 207.18 448 256 448z" fill="white"/>
  <circle cx="256" cy="180" r="8" fill="#f43f5e"/>
  <circle cx="280" cy="200" r="6" fill="#f43f5e"/>
  <circle cx="232" cy="200" r="6" fill="#f43f5e"/>
</svg>
